<svg version="1.2" xmlns="http://www.w3.org/2000/svg" viewBox="0 0 1024 1024" width="1024" height="1024">
	<title>sisir34-ai</title>
	<defs>
		<linearGradient id="g1" x1="1641.4" y1="222.2" x2="2534.2" y2="222.2" gradientUnits="userSpaceOnUse">
			<stop offset="0" stop-color="#36eedb"/>
			<stop offset=".5" stop-color="#4e8cc3"/>
			<stop offset="1" stop-color="#9624be"/>
		</linearGradient>
		<linearGradient id="g2" x1="1794.8" y1="144.4" x2="2380.8" y2="144.4" gradientUnits="userSpaceOnUse">
			<stop offset="0" stop-color="#36eedb"/>
			<stop offset=".5" stop-color="#4e8cc3"/>
			<stop offset="1" stop-color="#9624be"/>
		</linearGradient>
		<linearGradient id="g3" x1="162.5" y1="185" x2="861.5" y2="185" gradientUnits="userSpaceOnUse">
			<stop offset="0" stop-color="#00ff00"/>
			<stop offset="1" stop-color="#fff720"/>
		</linearGradient>
		<linearGradient id="g4" x1="282.6" y1="124.2" x2="741.4" y2="124.2" gradientUnits="userSpaceOnUse">
			<stop offset="0" stop-color="#00ff00"/>
			<stop offset="1" stop-color="#fff720"/>
		</linearGradient>
	</defs>
	<style>
		.s0 { fill: #000000 } 
		.s1 { fill: url(#g1) } 
		.s2 { fill: url(#g2) } 
		.s3 { fill: url(#g3) } 
		.s4 { fill: url(#g4) } 
	</style>
	<g id="Layer 1">
		<path id="&lt;Path&gt;" class="s0" d="m512 1024c-282.8 0-512-229.2-512-512 0-282.8 229.2-512 512-512 282.8 0 512 229.2 512 512 0 282.8-229.2 512-512 512z"/>
		<g id="&lt;Group&gt;">
			<path id="&lt;Compound Path&gt;" fill-rule="evenodd" class="s1" d="m2534.2 222.2v466.5l-3.7 3.7-374 374-4.2 4.3-55.6 55.5-8.9 8.9-8.9-8.9-52.4-52.4-381.4-381.4-3.7-3.7v-466.5l21.7 22.3 203.7 209.4 3.5 3.7v160.6l190.4 183.6h54.2l190.3-183.6v-160.6l3.6-3.7 203.7-209.4zm-516.9 625.3l-206.1-198.8-3.9-3.7v-161.8l-102.8-105.7v285.1l312.8 312.8zm79.9 17.3h-16.8v173.7l7.4 7.4 9.4-9.4zm373.9-487.3l-102.8 105.7v161.8l-3.8 3.7-204.2 196.9v127.9l310.8-310.9z"/>
			<path id="&lt;Compound Path&gt;" fill-rule="evenodd" class="s2" d="m2380.8 345.7l-3.9 3.8-93.1 91.9v127.5l-3.6 3.6-120.9 125.7-21.7 22.5v-121.2h-99.6v121.2l-21.7-22.5-121-125.7-3.5-3.6v-127.5l-93.2-91.9-3.8-3.8 0.1-5.5 3.9-167.7 0.6-28.1 20.6 19.1 211.2 196.2 4.1 3.9-0.1 5.7-1.4 62.2h108l-1.4-62.2-0.2-5.7 4.2-3.9 211.2-196.2 20.5-19.1 0.7 28.1 3.9 167.7zm-404 99.5l1.3-56.8-125-116.1-1.1 49.7zm4.5 84.6l-32.9-32.4v48.2l32.9 34.1zm162.9 12.3l-1.2-53.1h-110.5l-1.3 53.1zm82.9-44.7l-32.9 32.4v49.9l32.9-34.1zm96.4-175.4l-1.1-49.7-124.9 116.1 1.2 56.8z"/>
		</g>
		<g id="&lt;Group&gt;">
			<path id="&lt;Compound Path&gt;" fill-rule="evenodd" class="s3" d="m861.5 185v365.3l-2.9 2.9-292.8 292.8-3.3 3.4-43.5 43.5-7 6.9-7-6.9-41-41-298.6-298.7-2.9-2.9v-365.3l17 17.5 159.5 164 2.8 2.8v125.8l149 143.7h42.4l149-143.7v-125.8l2.9-2.8 159.4-164zm-404.7 489.6l-161.4-155.7-3-2.9v-126.7l-80.5-82.7v223.2l244.9 244.9zm62.6 13.6h-13.2v136l5.8 5.8 7.4-7.3zm292.8-381.6l-80.5 82.7v126.7l-3.1 2.9-159.8 154.2v100.1l243.4-243.4z"/>
			<path id="&lt;Compound Path&gt;" fill-rule="evenodd" class="s4" d="m741.4 281.7l-3 3-73 72v99.8l-2.7 2.8-94.7 98.4-17 17.7v-95h-78v95l-17-17.7-94.7-98.4-2.7-2.8v-99.8l-73-72-3-3 0.1-4.2 3-131.4 0.5-21.9 16.1 14.9 165.4 153.6 3.2 3-0.1 4.5-1.1 48.7h84.6l-1.1-48.7-0.1-4.5 3.2-3 165.4-153.6 16.1-14.9 0.5 21.9 3 131.4zm-316.3 77.8l1-44.5-97.8-90.9-0.9 39zm3.5 66.2l-25.7-25.4v37.8l25.7 26.7zm127.6 9.6l-0.9-41.6h-86.6l-1 41.6zm64.9-35l-25.8 25.4v39.1l25.8-26.8zm75.5-137.3l-0.9-38.9-97.8 90.9 1 44.5z"/>
		</g>
	</g>
</svg>